<?xml version="1.0" encoding="UTF-8"?>
<svg version="1.1" xmlns="http://www.w3.org/2000/svg" width="500" height="500">
<path d="M0 0 C165 0 330 0 500 0 C500 165 500 330 500 500 C335 500 170 500 0 500 C0 335 0 170 0 0 Z " fill="#FEFEFE" transform="translate(0,0)"/>
<path d="M0 0 C3.68439053 2.76167977 6.48125913 5.62683983 9.3125 9.25 C15.51443601 16.9716157 22.4281566 23.63628003 30 30 C30.72574219 30.61488281 31.45148438 31.22976562 32.19921875 31.86328125 C58.71526783 53.73354322 90.11567806 66.85459957 123 76 C120.4491334 78.5508666 117.60987211 79.52262119 114.3125 80.8125 C113.6534668 81.07820801 112.99443359 81.34391602 112.31542969 81.61767578 C108.8393342 82.99345872 105.37901968 84.21720586 101.77734375 85.22265625 C101.1021167 85.41819092 100.42688965 85.61372559 99.73120117 85.81518555 C97.843693 86.34852581 95.94540805 86.84328019 94.046875 87.3359375 C90.55220469 89.24456513 89.76194004 90.74373888 88.63183594 94.50537109 C88.42333008 95.32859863 88.21482422 96.15182617 88 97 C87.74766602 97.94053223 87.49533203 98.88106445 87.23535156 99.85009766 C86.3557318 103.26456404 85.54475323 106.68979122 84.75 110.125 C84.60170746 110.76205872 84.45341492 111.39911743 84.30062866 112.05548096 C78.7949676 135.82313674 74.71991652 159.93544033 70.82421875 184.01171875 C70.68935059 184.8217334 70.55448242 185.63174805 70.41552734 186.46630859 C70.11476252 188.30023182 69.83075738 190.13692973 69.55712891 191.97509766 C69.40034668 192.95913574 69.24356445 193.94317383 69.08203125 194.95703125 C68.87864136 196.29664917 68.87864136 196.29664917 68.67114258 197.66333008 C67.91567999 200.29357104 67.16582332 201.35810217 65 203 C55.64057649 204.5255448 45.65140648 202.56175862 36.375 201.1875 C35.23667725 201.02241943 34.09835449 200.85733887 32.92553711 200.68725586 C31.84409424 200.51589111 30.76265137 200.34452637 29.6484375 200.16796875 C28.68083496 200.01610107 27.71323242 199.8642334 26.71630859 199.70776367 C23.69904546 198.92158303 21.54554112 197.78806684 19 196 C8.56352653 175.12705306 22.62564856 121.76190565 29.47607422 101.05688477 C31.1787577 96.10417143 31.1787577 96.10417143 31 91 C29.29357437 88.38184079 27.24940451 86.09244552 25.1875 83.75 C11.2096743 67.16397231 -0.26047916 47.93518416 -7.8125 27.5625 C-8.07329346 26.88316406 -8.33408691 26.20382813 -8.6027832 25.50390625 C-10.17906833 20.92338674 -10.03416396 18.35892277 -8 14 C-6.69884073 11.49501905 -5.31069027 9.05501993 -3.875 6.625 C-3.50246094 5.98433594 -3.12992188 5.34367188 -2.74609375 4.68359375 C-1.83565998 3.11951523 -0.91851809 1.55934466 0 0 Z " fill="#2D345C" transform="translate(168,163)"/>
<path d="M0 0 C1.83146072 0.00123871 1.83146072 0.00123871 3.69992065 0.00250244 C27.05560499 0.03847475 50.23235024 1.23229589 73.503479 3.12896729 C76.97346062 3.40477905 80.44543178 3.64518539 83.91796875 3.88671875 C86.13290821 4.04817149 88.34776303 4.21079305 90.5625 4.375 C91.99154663 4.47530518 91.99154663 4.47530518 93.44946289 4.57763672 C99.57946697 5.07946697 99.57946697 5.07946697 101.8125 7.3125 C102.10011292 9.29020691 102.10011292 9.29020691 102.15063477 11.74291992 C102.17307755 12.66115036 102.19552032 13.5793808 102.21864319 14.5254364 C102.23028 15.52122208 102.24191681 16.51700775 102.25390625 17.54296875 C102.26767807 18.56675125 102.28144989 19.59053375 102.29563904 20.64533997 C102.31894755 22.81664603 102.3361943 24.98802421 102.34790039 27.15942383 C102.37475873 30.47025834 102.44961866 33.77786518 102.52539062 37.08789062 C102.54205375 39.19789516 102.55581817 41.30792498 102.56640625 43.41796875 C102.59626114 44.40363327 102.62611603 45.38929779 102.65687561 46.40483093 C102.62360639 51.64777116 102.17047777 54.56817744 98.4074707 58.37695312 C97.23408587 59.38523892 96.03809696 60.3683685 94.8125 61.3125 C94.06226563 61.92738281 93.31203125 62.54226562 92.5390625 63.17578125 C85.20999496 68.22984084 77.58435704 72.76020335 69.84423828 77.15087891 C68.01672924 78.19573447 66.20819531 79.27361266 64.40234375 80.35546875 C62.90380859 81.20044922 62.90380859 81.20044922 61.375 82.0625 C60.53066406 82.55234375 59.68632812 83.0421875 58.81640625 83.546875 C54.20262768 84.72281856 50.3492311 83.49632083 45.8125 82.3125 C44.98274658 82.10141602 44.15299316 81.89033203 43.2980957 81.67285156 C-1.83860843 69.77546514 -48.56404029 46.24768957 -75.1875 6.3125 C-72.8626785 3.9876785 -67.82017007 4.29921574 -64.6875 3.875 C-63.43453125 3.69227539 -63.43453125 3.69227539 -62.15625 3.50585938 C-41.51536387 0.67653336 -20.81016251 -0.06017225 0 0 Z " fill="#2D335C" transform="translate(248.1875,150.6875)"/>
<path d="M0 0 C2.84132781 2.7876165 5.59542334 5.62476957 8.27734375 8.56640625 C37.53114659 40.59541584 76.90050071 64.92969107 120 73 C119.505 74.485 119.505 74.485 119 76 C117.515 76.495 117.515 76.495 116 77 C116 77.99 116 78.98 116 80 C88.61836219 74.11314152 59.25019567 62.2340485 37 45 C35.96230469 44.22527344 34.92460937 43.45054687 33.85546875 42.65234375 C19.70821699 31.95618235 7.04524188 19.87675515 -4 6 C-2.68 4.02 -1.36 2.04 0 0 Z " fill="#EFF3F6" transform="translate(174,159)"/>
<path d="M0 0 C7.60045005 0.62399388 15.13660396 1.4997813 22.6875 2.5625 C24.18700195 2.77036133 24.18700195 2.77036133 25.71679688 2.98242188 C28.14485914 3.31933004 30.57257335 3.65854777 33 4 C33.13987946 9.6587601 32.70769275 14.82619964 31.625 20.375 C31.43550781 21.44041016 31.43550781 21.44041016 31.2421875 22.52734375 C30.2514454 27.7485546 30.2514454 27.7485546 28 30 C23.68442601 30.45906021 19.33715845 30.32401051 15 30.3125 C13.17855469 30.33666992 13.17855469 30.33666992 11.3203125 30.36132812 C10.16273438 30.36197266 9.00515625 30.36261719 7.8125 30.36328125 C6.74644531 30.36626221 5.68039063 30.36924316 4.58203125 30.37231445 C3.72996094 30.24945068 2.87789062 30.12658691 2 30 C-0.36008817 26.45986775 -0.23463644 24.98878045 -0.1953125 20.80078125 C-0.18886719 19.59228516 -0.18242187 18.38378906 -0.17578125 17.13867188 C-0.15064453 15.2447168 -0.15064453 15.2447168 -0.125 13.3125 C-0.11597656 12.03826172 -0.10695312 10.76402344 -0.09765625 9.45117188 C-0.07405641 6.30059373 -0.04113194 3.15039017 0 0 Z " fill="#2F355B" transform="translate(191,369)"/>
<path d="M0 0 C15 1 15 1 20 5 C20.64697266 8.05273438 20.64697266 8.05273438 20.6640625 11.59375 C20.67050781 12.87121094 20.67695313 14.14867187 20.68359375 15.46484375 C20.67312012 16.12726074 20.66264648 16.78967773 20.65185547 17.47216797 C20.62506529 19.49506972 20.65161188 21.51242617 20.68359375 23.53515625 C20.67714844 24.81261719 20.67070312 26.09007812 20.6640625 27.40625 C20.65842285 28.57478516 20.6527832 29.74332031 20.64697266 30.94726562 C20 34 20 34 15 38 C10.05 38.99 5.1 39.98 0 41 C0 27.47 0 13.94 0 0 Z " fill="#31375B" transform="translate(357,161)"/>
<path d="M0 0 C1.1048851 3.3146553 0.9390331 3.90666804 -0.14453125 7.0625 C-0.40838623 7.85462891 -0.67224121 8.64675781 -0.9440918 9.46289062 C-1.2306665 10.30013672 -1.51724121 11.13738281 -1.8125 12 C-3.90522406 18.2978082 -5.69512002 24.35087803 -6.48046875 30.96875 C-7.12013044 33.46968294 -7.98220427 34.42043676 -10 36 C-12.88211302 36.96070434 -14.69850044 37.10581883 -17.6875 37.0625 C-18.89986328 37.04896484 -18.89986328 37.04896484 -20.13671875 37.03515625 C-20.75160156 37.02355469 -21.36648438 37.01195312 -22 37 C-20.99497187 29.48478967 -19.39846138 22.20892473 -17.5 14.875 C-17.17962769 13.61272583 -17.17962769 13.61272583 -16.8527832 12.32495117 C-16.64355225 11.53451416 -16.43432129 10.74407715 -16.21875 9.9296875 C-16.03248047 9.22054199 -15.84621094 8.51139648 -15.65429688 7.78076172 C-15 6 -15 6 -13 4 C-10.81254224 3.22960999 -8.59991571 2.52938697 -6.375 1.875 C-5.18648438 1.52179688 -3.99796875 1.16859375 -2.7734375 0.8046875 C-1.85820312 0.53914062 -0.94296875 0.27359375 0 0 Z " fill="#31365B" transform="translate(278,252)"/>
<path d="M0 0 C-0.33 0.66 -0.66 1.32 -1 2 C-1.66 1.67 -2.32 1.34 -3 1 C-3 1.66 -3 2.32 -3 3 C-1.68 3.66 -0.36 4.32 1 5 C-1.49420704 7.49420704 -3.00722804 7.447511 -6.4375 8.0625 C-10.60691535 9.02977912 -10.60691535 9.02977912 -13.3203125 12.08984375 C-14.09668754 14.4688282 -14.09668754 14.4688282 -14.53515625 16.84375 C-15 19 -15 19 -17 22 C-17.33 21.01 -17.66 20.02 -18 19 C-19.65 19.33 -21.3 19.66 -23 20 C-21.88541917 9.30002402 -21.88541917 9.30002402 -19 5 C-16.1733482 3.08353008 -13.24127924 2.02837929 -10 1 C-9.32710938 0.76410156 -8.65421875 0.52820313 -7.9609375 0.28515625 C-4.74132392 -0.76293072 -3.28254867 -1.09418289 0 0 Z " fill="#EBEDF2" transform="translate(277,247)"/>
<path d="M0 0 C0.33 0 0.66 0 1 0 C1.58538622 15.51273486 1.58538622 15.51273486 -2.34375 20.8125 C-5.0485044 22.75175787 -7.79094564 22.18164459 -11 22 C-9.06745228 19.9754262 -7.36841312 18.57894208 -5 17 C-4.23519557 14.75371867 -4.23519557 14.75371867 -3.875 12.1875 C-3.72804687 11.33542969 -3.58109375 10.48335938 -3.4296875 9.60546875 C-3.13821078 7.83805989 -2.85192017 6.06978941 -2.5703125 4.30078125 C-2 2 -2 2 0 0 Z " fill="#2B314E" transform="translate(237,344)"/>
<path d="M0 0 C0.33 0 0.66 0 1 0 C1.01981934 0.67579102 1.03963867 1.35158203 1.06005859 2.04785156 C1.15543238 5.11562044 1.26506165 8.18271998 1.375 11.25 C1.4059375 12.31347656 1.436875 13.37695312 1.46875 14.47265625 C1.50742187 15.49746094 1.54609375 16.52226562 1.5859375 17.578125 C1.6173584 18.52075195 1.6487793 19.46337891 1.68115234 20.43457031 C2.00977341 23.07863627 2.80478125 24.65509465 4 27 C4 28.32 4 29.64 4 31 C4.66 31.33 5.32 31.66 6 32 C6 32.66 6 33.32 6 34 C3.03 34.495 3.03 34.495 0 35 C0 23.45 0 11.9 0 0 Z " fill="#4F546C" transform="translate(357,167)"/>
<path d="M0 0 C2.64 1.65 5.28 3.3 8 5 C7.01 7.31 6.02 9.62 5 12 C2.36 10.35 -0.28 8.7 -3 7 C-2.01 6.67 -1.02 6.34 0 6 C0 4.02 0 2.04 0 0 Z " fill="#E8EDF3" transform="translate(217,199)"/>
<path d="M0 0 C4.66608305 3.46623312 9.18381672 7.11196685 10.8125 12.875 C10.874375 13.57625 10.93625 14.2775 11 15 C10.34 15 9.68 15 9 15 C8.67 14.01 8.34 13.02 8 12 C6.35178756 10.96986723 4.68496298 9.96885372 3 9 C2.67 8.34 2.34 7.68 2 7 C1.34 7 0.68 7 0 7 C0 6.34 0 5.68 0 5 C-0.66 5 -1.32 5 -2 5 C-1.34 3.35 -0.68 1.7 0 0 Z " fill="#3A3E58" transform="translate(168,163)"/>
<path d="M0 0 C0.66 0 1.32 0 2 0 C2.19477739 1.62414378 2.38059458 3.24936423 2.5625 4.875 C2.66691406 5.77992188 2.77132812 6.68484375 2.87890625 7.6171875 C3 10 3 10 2 12 C1.77141886 14.0374763 1.58975722 16.08040303 1.4375 18.125 C1.35371094 19.22070312 1.26992187 20.31640625 1.18359375 21.4453125 C1.12300781 22.28835938 1.06242188 23.13140625 1 24 C0.34 23.67 -0.32 23.34 -1 23 C-1.1567564 15.28410183 -0.67453101 7.68483539 0 0 Z " fill="#42455F" transform="translate(188,312)"/>
<path d="M0 0 C4.56030824 3.80475422 8.85089392 7.74969621 13 12 C12.67 12.99 12.34 13.98 12 15 C10.0625 14.25 10.0625 14.25 8 13 C7.25 10.875 7.25 10.875 7 9 C5.68 8.67 4.36 8.34 3 8 C3 7.34 3 6.68 3 6 C2.34 6 1.68 6 1 6 C0.67 4.02 0.34 2.04 0 0 Z " fill="#2A2F4B" transform="translate(178,175)"/>
<path d="M0 0 C14.49071207 -0.25773994 14.49071207 -0.25773994 17.875 2.5625 C18.431875 3.2740625 18.431875 3.2740625 19 4 C16.6739143 4.38063221 14.33944736 4.71269945 12 5 C11.67 4.67 11.34 4.34 11 4 C8.67182036 3.63239269 6.3381615 3.29758419 4 3 C4 2.34 4 1.68 4 1 C2.68 0.67 1.36 0.34 0 0 Z " fill="#373A55" transform="translate(200,371)"/>
<path d="M0 0 C0.66 0.33 1.32 0.66 2 1 C0.8125 3 0.8125 3 -1 5 C-3.6875 5.25 -3.6875 5.25 -6 5 C-6 5.66 -6 6.32 -6 7 C-8.31 6.67 -10.62 6.34 -13 6 C-10.14491782 4.559422 -7.27682755 3.15665758 -4.375 1.8125 C-3.59898437 1.44769531 -2.82296875 1.08289063 -2.0234375 0.70703125 C-1.35570312 0.47371094 -0.68796875 0.24039063 0 0 Z " fill="#E5E9EF" transform="translate(289,240)"/>
<path d="M0 0 C0.99 0.33 1.98 0.66 3 1 C3.1799928 6.21979128 2.97094808 10.07262981 1 15 C0.67 15 0.34 15 0 15 C0 10.05 0 5.1 0 0 Z " fill="#292E4B" transform="translate(187,335)"/>
<path d="M0 0 C1.258125 0.12375 2.51625 0.2475 3.8125 0.375 C4.87404297 0.47941406 4.87404297 0.47941406 5.95703125 0.5859375 C8 1 8 1 11 3 C4.375 6.125 4.375 6.125 1 5 C0.67 3.35 0.34 1.7 0 0 Z " fill="#2D314D" transform="translate(280,237)"/>
<path d="M0 0 C2.28062828 3.42094242 2.21925007 4.68187222 2.125 8.6875 C2.10695313 9.68136719 2.08890625 10.67523438 2.0703125 11.69921875 C2.03550781 12.83810547 2.03550781 12.83810547 2 14 C0.68 14.33 -0.64 14.66 -2 15 C-1.85892253 13.54119891 -1.71197585 12.08296449 -1.5625 10.625 C-1.48128906 9.81289062 -1.40007812 9.00078125 -1.31640625 8.1640625 C-1 6 -1 6 0 4 C0 2.68 0 1.36 0 0 Z " fill="#2A2E4F" transform="translate(347,192)"/>
<path d="M0 0 C0.66 2.31 1.32 4.62 2 7 C-0.3125 7.6875 -0.3125 7.6875 -3 8 C-4.8125 6.5625 -4.8125 6.5625 -6 5 C-3.74193548 0 -3.74193548 0 0 0 Z " fill="#F2F6F7" transform="translate(267,249)"/>
<path d="M0 0 C1.60379341 -0.05416188 3.20811406 -0.09286638 4.8125 -0.125 C5.70582031 -0.14820313 6.59914063 -0.17140625 7.51953125 -0.1953125 C10 0 10 0 13 2 C8.67265609 4.22923777 5.71599818 3.92470553 1 3 C0.67 2.01 0.34 1.02 0 0 Z " fill="#2B2D4D" transform="translate(358,162)"/>
<path d="M0 0 C0.99 0.33 1.98 0.66 3 1 C2.67 1.99 2.34 2.98 2 4 C2.66 4.66 3.32 5.32 4 6 C3.01 6.99 2.02 7.98 1 9 C0.34 8.34 -0.32 7.68 -1 7 C-3.06874034 6.3574765 -3.06874034 6.3574765 -5 6 C-4.360625 5.566875 -3.72125 5.13375 -3.0625 4.6875 C-0.73253997 3.08760823 -0.73253997 3.08760823 0 0 Z " fill="#384061" transform="translate(279,236)"/>
<path d="M0 0 C2.31 0.33 4.62 0.66 7 1 C7 1.66 7 2.32 7 3 C6.01 3.495 6.01 3.495 5 4 C5.33 5.32 5.66 6.64 6 8 C3.46414701 6.98565881 2.21863205 6.34981128 0.75 4 C0 2 0 2 0 0 Z " fill="#F6FAFA" transform="translate(191,183)"/>
<path d="M0 0 C3.63 0 7.26 0 11 0 C10.67 2.31 10.34 4.62 10 7 C9.34 6.01 8.68 5.02 8 4 C5.08235 2.0549 3.37462715 1.54723683 0 1 C0 0.67 0 0.34 0 0 Z " fill="#292C4A" transform="translate(213,373)"/>
<path d="M0 0 C0.99 0.33 1.98 0.66 3 1 C3.66 0.67 4.32 0.34 5 0 C5 1.32 5 2.64 5 4 C2.11788698 4.96070434 0.30149956 5.10581883 -2.6875 5.0625 C-3.89986328 5.04896484 -3.89986328 5.04896484 -5.13671875 5.03515625 C-6.05904297 5.01775391 -6.05904297 5.01775391 -7 5 C-6.67 4.01 -6.34 3.02 -6 2 C-6 2.66 -6 3.32 -6 4 C-3.53199953 2.84826645 -1.95216435 1.95216435 0 0 Z " fill="#5B5C75" transform="translate(263,284)"/>
<path d="M0 0 C1.32 0.33 2.64 0.66 4 1 C3.34 1.66 2.68 2.32 2 3 C2 2.34 2 1.68 2 1 C1.34 0.67 0.68 0.34 0 0 Z M-2 2 C0.0625 2.1875 0.0625 2.1875 2 3 C2.33 3.99 2.66 4.98 3 6 C2.01 6.66 1.02 7.32 0 8 C-1.32 6.68 -2.64 5.36 -4 4 C-3.34 3.34 -2.68 2.68 -2 2 Z " fill="#E4EBF0" transform="translate(202,189)"/>
<path d="M0 0 C0.33 0.66 0.66 1.32 1 2 C1.66 2.33 2.32 2.66 3 3 C2.34 3.66 1.68 4.32 1 5 C0.32707499 6.96690374 0.32707499 6.96690374 -0.125 9.125 C-0.41375 10.40375 -0.7025 11.6825 -1 13 C-1.33 13 -1.66 13 -2 13 C-2.16682272 8.07872966 -2.24828052 4.49656104 0 0 Z " fill="#3D405D" transform="translate(195,275)"/>
<path d="M0 0 C0 0.99 0 1.98 0 3 C-0.66 3.66 -1.32 4.32 -2 5 C-2.99 4.67 -3.98 4.34 -5 4 C-3.35 2.68 -1.7 1.36 0 0 Z M-7 5 C-6.01 5.33 -5.02 5.66 -4 6 C-5.485 7.485 -5.485 7.485 -7 9 C-7.99 8.34 -8.98 7.68 -10 7 C-9.01 6.34 -8.02 5.68 -7 5 Z " fill="#E8EBF2" transform="translate(340,213)"/>
<path d="M0 0 C0.33 0.99 0.66 1.98 1 3 C1.721875 2.62875 2.44375 2.2575 3.1875 1.875 C6.60988311 0.81025859 7.88228073 1.39660152 11 3 C10.34 3.66 9.68 4.32 9 5 C6.525 4.01 6.525 4.01 4 3 C4.33 3.99 4.66 4.98 5 6 C4.01 6 3.02 6 2 6 C1.34 5.34 0.68 4.68 0 4 C0 2.68 0 1.36 0 0 Z " fill="#E3E9EC" transform="translate(187,180)"/>
<path d="M0 0 C0 0.66 0 1.32 0 2 C0.928125 1.7215625 0.928125 1.7215625 1.875 1.4375 C4 1 4 1 6 2 C6 2.99 6 3.98 6 5 C4.51882199 4.71872579 3.04006751 4.42466268 1.5625 4.125 C0.73878906 3.96257812 -0.08492188 3.80015625 -0.93359375 3.6328125 C-1.61550781 3.42398438 -2.29742187 3.21515625 -3 3 C-3.33 2.34 -3.66 1.68 -4 1 C-2 0 -2 0 0 0 Z " fill="#3C405B" transform="translate(279,225)"/>
<path d="M0 0 C3.55780196 0.60990891 6.6828589 1.5783681 10 3 C10 3.66 10 4.32 10 5 C6.44219804 4.39009109 3.3171411 3.4216319 0 2 C0 1.34 0 0.68 0 0 Z " fill="#434761" transform="translate(257,219)"/>
<path d="M0 0 C0.33 0.99 0.66 1.98 1 3 C-0.98 3.99 -2.96 4.98 -5 6 C-5.33 4.35 -5.66 2.7 -6 1 C-3 0 -3 0 0 0 Z " fill="#393E59" transform="translate(329,218)"/>
<path d="M0 0 C3.16115776 1.36983503 3.9927092 1.9890638 6 5 C3.69 5.33 1.38 5.66 -1 6 C-1.042721 4.33388095 -1.04063832 2.66617115 -1 1 C-0.67 0.67 -0.34 0.34 0 0 Z " fill="#F5FAFC" transform="translate(189,177)"/>
<path d="M0 0 C3.96 0 7.92 0 12 0 C8.71299843 1.64350079 6.52069985 2.41321669 3 3 C3 2.34 3 1.68 3 1 C2.01 0.67 1.02 0.34 0 0 Z " fill="#2C304E" transform="translate(196,396)"/>
<path d="M0 0 C1.485 0.99 1.485 0.99 3 2 C3.3125 5 3.3125 5 3 8 C2.34 8.66 1.68 9.32 1 10 C-0.60725635 6.78548731 -0.05748185 3.56387464 0 0 Z " fill="#2B2F50" transform="translate(251,260)"/>
<path d="M0 0 C0.99 0.33 1.98 0.66 3 1 C3 4.3 3 7.6 3 11 C0.81024227 7.71536341 0.00193437 4.79303725 -1 1 C-0.67 0.67 -0.34 0.34 0 0 Z " fill="#F0F8FA" transform="translate(349,155)"/>
<path d="M0 0 C4.92307692 4.30769231 4.92307692 4.30769231 5.3125 7.8125 C5.209375 8.534375 5.10625 9.25625 5 10 C2.08772731 6.71195019 0.50298788 4.40114397 0 0 Z " fill="#DFE1EC" transform="translate(195,249)"/>
<path d="M0 0 C0.91007813 0.00902344 1.82015625 0.01804688 2.7578125 0.02734375 C3.45648438 0.03894531 4.15515625 0.05054688 4.875 0.0625 C4.875 0.3925 4.875 0.7225 4.875 1.0625 C2.895 1.0625 0.915 1.0625 -1.125 1.0625 C-1.125 2.0525 -1.125 3.0425 -1.125 4.0625 C-1.785 4.0625 -2.445 4.0625 -3.125 4.0625 C-3.125 3.4025 -3.125 2.7425 -3.125 2.0625 C-4.445 1.7325 -5.765 1.4025 -7.125 1.0625 C-4.60024538 -0.19987731 -2.81299534 -0.03606404 0 0 Z " fill="#292E4D" transform="translate(209.125,152.9375)"/>
<path d="M0 0 C2.25245881 2.68841859 3.88213958 4.64641875 5 8 C4.01 8.33 3.02 8.66 2 9 C0 3.375 0 3.375 0 0 Z " fill="#DFE5ED" transform="translate(179,227)"/>
<path d="M0 0 C0.33 0.66 0.66 1.32 1 2 C2.32 1.67 3.64 1.34 5 1 C4.67 2.65 4.34 4.3 4 6 C2.68 5.67 1.36 5.34 0 5 C0 3.35 0 1.7 0 0 Z " fill="#E9F0ED" transform="translate(246,219)"/>
<path d="M0 0 C0.99 1.32 1.98 2.64 3 4 C2.03114628 5.68496298 1.03013277 7.35178756 0 9 C-0.33 9 -0.66 9 -1 9 C-0.67 6.03 -0.34 3.06 0 0 Z " fill="#DDE2EB" transform="translate(252,272)"/>
<path d="M0 0 C0.66 0.33 1.32 0.66 2 1 C1.01 2.32 0.02 3.64 -1 5 C-2.32 4.67 -3.64 4.34 -5 4 C-5 3.34 -5 2.68 -5 2 C-2.625 0.9375 -2.625 0.9375 0 0 Z " fill="#D5D8DF" transform="translate(289,240)"/>
<path d="M0 0 C4.455 1.98 4.455 1.98 9 4 C5.52176885 5.15941038 3.54104422 4.70820884 0 4 C-0.33 3.01 -0.66 2.02 -1 1 C-0.67 0.67 -0.34 0.34 0 0 Z " fill="#393B56" transform="translate(225,213)"/>
<path d="M0 0 C1.32 0.33 2.64 0.66 4 1 C4 1.66 4 2.32 4 3 C3.01 3 2.02 3 1 3 C1 3.66 1 4.32 1 5 C0.01 4.67 -0.98 4.34 -2 4 C-1.34 2.68 -0.68 1.36 0 0 Z " fill="#444466" transform="translate(265,256)"/>
<path d="M0 0 C-0.33 0.99 -0.66 1.98 -1 3 C-2.32 2.34 -3.64 1.68 -5 1 C-2 0 -2 0 0 0 Z M-5 3 C-4.01 3.33 -3.02 3.66 -2 4 C-2.99 4.33 -3.98 4.66 -5 5 C-5 4.34 -5 3.68 -5 3 Z M-8 4 C-6.515 4.99 -6.515 4.99 -5 6 C-5.99 6.33 -6.98 6.66 -8 7 C-8 6.01 -8 5.02 -8 4 Z " fill="#282B52" transform="translate(271,256)"/>
<path d="M0 0 C-1.375 1.5 -1.375 1.5 -3 3 C-3.66 3 -4.32 3 -5 3 C-5 2.34 -5 1.68 -5 1 C-5.99 0.67 -6.98 0.34 -8 0 C-4.94736336 -0.98120464 -3.05263664 -0.98120464 0 0 Z " fill="#DDE0E7" transform="translate(367,201)"/>
<path d="M0 0 C2.475 0.495 2.475 0.495 5 1 C4.34 2.32 3.68 3.64 3 5 C1.5 3.625 1.5 3.625 0 2 C0 1.34 0 0.68 0 0 Z " fill="#3F435E" transform="translate(193,178)"/>
</svg>
