<?xml version="1.0" encoding="UTF-8"?>
<svg version="1.1" xmlns="http://www.w3.org/2000/svg" width="481" height="500">
<path d="M0 0 C158.73 0 317.46 0 481 0 C481 165 481 330 481 500 C322.27 500 163.54 500 0 500 C0 335 0 170 0 0 Z " fill="#FEFEFE" transform="translate(0,0)"/>
<path d="M0 0 C7.18435823 0.7074024 14.21359912 1.75919307 21.29425049 3.16009521 C22.37454529 3.36878235 23.45484009 3.57746948 24.56787109 3.79248047 C27.9934718 4.45596744 31.41725577 5.12836495 34.84112549 5.80072021 C37.08841578 6.2361611 39.33581106 6.6710605 41.58331299 7.10540771 C47.14023914 8.18273183 52.69352762 9.27734515 58.24468994 10.38397217 C60.51947619 10.83720345 62.7947228 11.28812896 65.07037354 11.73699951 C68.427939 12.40114631 71.78319293 13.07592155 75.13800049 13.75384521 C76.16258362 13.95524109 77.18716675 14.15663696 78.24279785 14.36413574 C79.18113464 14.5562262 80.11947144 14.74831665 81.08624268 14.94622803 C82.32334991 15.19460419 82.32334991 15.19460419 83.58544922 15.44799805 C85.59112549 16.05072021 85.59112549 16.05072021 87.59112549 18.05072021 C87.4907763 23.77062422 84.75100011 27.03115489 81.34112549 31.30072021 C80.24306804 32.71737038 79.14677798 34.13539184 78.05206299 35.55462646 C77.4819751 36.28955322 76.91188721 37.02447998 76.32452393 37.78167725 C73.45369987 41.53962636 70.71512056 45.39077219 67.96612549 49.23822021 C62.65496563 56.63148025 57.20035986 63.88088805 51.59112549 71.05072021 C50.69893133 72.20155488 49.80701185 73.35260254 48.91534424 74.50384521 C40.48259102 85.35708319 31.72108857 95.86604577 22.37115479 105.94256592 C19.97361669 108.52736426 17.64551262 111.14265988 15.40362549 113.86322021 C12.77450776 116.98060266 9.81088021 119.55092807 6.70440674 122.18353271 C4.50513349 124.12669835 2.49715049 126.1830281 0.46612549 128.30072021 C-3.29261052 132.14443634 -7.31450174 135.33063541 -11.59637451 138.55072021 C-18.59212591 143.86378492 -23.63961605 149.5477548 -26.40887451 158.05072021 C-27.28919176 166.67782925 -27.37669416 174.26074335 -22.69793701 181.83978271 C-18.34476255 189.30613649 -18.58196944 197.70572928 -19.40887451 206.05072021 C-20.56881752 209.29568475 -22.05601914 211.55843638 -24.40887451 214.05072021 C-25.14879639 214.88732178 -25.88871826 215.72392334 -26.65106201 216.58587646 C-29.78492031 219.3868178 -32.37554875 220.4728002 -36.34637451 221.80072021 C-38.12334717 222.41173584 -38.12334717 222.41173584 -39.93621826 223.03509521 C-45.58162115 224.68616918 -50.85806882 225.15360254 -56.72137451 225.36322021 C-70.56462479 226.09538512 -83.14626751 229.51800917 -95.40887451 236.05072021 C-96.4027417 236.57536865 -97.39660889 237.10001709 -98.42059326 237.64056396 C-103.88143228 240.67436342 -108.80100924 244.07384614 -113.65887451 247.98822021 C-130.27944831 261.31152339 -148.90954632 266.36500864 -169.90106201 266.38665771 C-171.37934493 266.39309768 -172.85762662 266.39982689 -174.33590698 266.40682983 C-177.41364503 266.41872598 -180.49127138 266.42251785 -183.56903076 266.42132568 C-187.5100886 266.42112114 -191.45043629 266.44859525 -195.391325 266.4828701 C-198.43510233 266.50509289 -201.47870614 266.50916492 -204.5225563 266.50810623 C-205.97622282 266.51046253 -207.4298941 266.51928785 -208.88348007 266.53477097 C-210.90991666 266.5543645 -212.93656482 266.54608751 -214.96307373 266.53656006 C-216.68987869 266.54083511 -216.68987869 266.54083511 -218.4515686 266.54519653 C-222.04260173 265.94475786 -223.17928505 264.86469392 -225.40887451 262.05072021 C-226.82929272 259.2098838 -226.72339723 257.19594744 -226.40887451 254.05072021 C-223.12475996 249.70665335 -218.61679984 248.14631355 -213.72137451 246.17572021 C-212.88211426 245.82984863 -212.042854 245.48397705 -211.17816162 245.12762451 C-204.96085103 242.59663737 -198.67246605 240.31562083 -192.32952881 238.1227417 C-186.23741735 236.01341155 -180.30523701 233.66276679 -174.40887451 231.05072021 C-173.69441162 230.74827393 -172.97994873 230.44582764 -172.24383545 230.13421631 C-157.43782427 223.83968214 -147.69907175 216.44589638 -137.22528076 204.12103271 C-135.0575398 201.65027419 -132.74002118 199.36806055 -130.40887451 197.05072021 C-129.64188232 196.28372803 -128.87489014 195.51673584 -128.08465576 194.72650146 C-110.40887451 177.05072021 -110.40887451 177.05072021 -107.71746826 174.37298584 C-105.84351576 172.48793548 -104.10440019 170.59305797 -102.40887451 168.55072021 C-98.46758945 163.80326321 -93.94898819 159.59156393 -89.57293701 155.24993896 C-87.72651102 153.41277156 -85.88015906 151.57552976 -84.03387451 149.73822021 C-83.11348389 148.8262085 -82.19309326 147.91419678 -81.24481201 146.97454834 C-76.61709661 142.36336049 -72.11088881 137.72407983 -67.8961792 132.73016357 C-66.36755262 131.00406012 -64.74415077 129.47011684 -63.03387451 127.92572021 C-54.2904555 119.24111344 -49.09065498 107.84163381 -44.47088623 96.60736084 C-42.75480773 92.47614842 -40.97421152 88.37284596 -39.20404053 84.2645874 C-34.82054823 74.08330493 -30.47934177 63.88389103 -26.15887451 53.67572021 C-25.72873047 52.6601001 -25.29858643 51.64447998 -24.85540771 50.5980835 C-22.33148764 44.62900574 -19.82365719 38.6535456 -17.3296814 32.67190552 C-15.86814142 29.16795973 -14.40293875 25.66555026 -12.93756104 22.16320801 C-12.21266589 20.42768463 -11.48958893 18.69140066 -10.76837158 16.9543457 C-9.75581686 14.51585168 -8.73726314 12.07994343 -7.71746826 9.64447021 C-7.41274094 8.9061496 -7.10801361 8.16782898 -6.79405212 7.40713501 C-3.71090598 0.07813522 -3.71090598 0.07813522 0 0 Z " fill="#3D3D3D" transform="translate(310.40887451171875,137.94927978515625)"/>
<path d="M0 0 C2.46097399 1.00788047 4.67167648 2.04124678 6.99609375 3.296875 C7.65782089 3.64171432 8.31954803 3.98655365 9.00132751 4.34184265 C11.15292799 5.46649047 13.29505125 6.60802962 15.4375 7.75 C16.92924859 8.53377968 18.4216043 9.31640487 19.91455078 10.09790039 C22.89709877 11.66132302 25.87612249 13.23114313 28.85205078 14.80712891 C33.41270998 17.22138066 37.99025379 19.60254292 42.57006836 21.98022461 C52.63603061 27.20989896 62.67305729 32.49560309 72.70507812 37.79003906 C75.10944067 39.05770085 77.51559193 40.32192556 79.921875 41.5859375 C81.48963149 42.41136688 83.05734163 43.23688428 84.625 44.0625 C85.35444824 44.44494873 86.08389648 44.82739746 86.83544922 45.22143555 C91.88632722 47.88632722 91.88632722 47.88632722 93 49 C92.56763868 53.87902253 91.43900139 57.87664267 89.48828125 62.3515625 C88.72161133 64.12466797 88.72161133 64.12466797 87.93945312 65.93359375 C87.39721629 67.16409814 86.85489836 68.3945668 86.3125 69.625 C85.79494141 70.81996094 85.27738281 72.01492187 84.74414062 73.24609375 C83.18117711 76.83915806 81.59340158 80.42034345 80 84 C79.73121033 84.61532593 79.46242065 85.23065186 79.18548584 85.86462402 C78.3963065 87.67122196 77.59482162 89.47242886 76.79296875 91.2734375 C76.32785889 92.32708496 75.86274902 93.38073242 75.38354492 94.46630859 C74 97 74 97 71 99 C64.96105992 98.66715145 59.60807719 97.11020212 53.90234375 95.19140625 C53.04317856 94.90914688 52.18401337 94.62688751 51.29881287 94.33607483 C48.50947205 93.41817793 45.72355676 92.49031155 42.9375 91.5625 C40.9965215 90.92221048 39.05527531 90.2827319 37.11376953 89.64404297 C33.22483134 88.36424997 29.33690601 87.08145207 25.44970703 85.79638672 C18.10276178 83.37070062 10.7399944 80.99517963 3.375 78.625 C2.14789307 78.22716309 0.92078613 77.82932617 -0.34350586 77.41943359 C-6.30791234 75.48900478 -12.28086973 73.60093333 -18.28125 71.78515625 C-19.4367334 71.43050293 -20.5922168 71.07584961 -21.78271484 70.71044922 C-23.93526249 70.05163442 -26.09163626 69.40513053 -28.25244141 68.77392578 C-29.20296387 68.48114746 -30.15348633 68.18836914 -31.1328125 67.88671875 C-31.95668457 67.64139404 -32.78055664 67.39606934 -33.62939453 67.14331055 C-36.94870043 65.54245478 -38.75009798 63.93759032 -41 61 C-41.70890397 58.11634228 -41.70198239 55.33373277 -41.6640625 52.375 C-41.66884613 51.5504834 -41.67362976 50.7259668 -41.67855835 49.87646484 C-41.68195122 48.13832687 -41.67279153 46.40012456 -41.65185547 44.66210938 C-41.62507729 42.00766175 -41.65161996 39.35744175 -41.68359375 36.703125 C-41.68028954 35.01040737 -41.67388306 33.31769237 -41.6640625 31.625 C-41.67418365 30.83528809 -41.68430481 30.04557617 -41.69473267 29.23193359 C-41.60994746 25.22812153 -41.37168848 23.48423754 -38.86743164 20.22167969 C-35.83890197 17.8751816 -32.75075122 15.77416338 -29.45703125 13.828125 C-28.84736008 13.46023865 -28.2376889 13.09235229 -27.60954285 12.71331787 C-25.68121069 11.55203274 -23.7469889 10.40099315 -21.8125 9.25 C-20.50286414 8.46288989 -19.19361545 7.67513522 -17.88476562 6.88671875 C-5.66322814 -0.45916938 -5.66322814 -0.45916938 0 0 Z " fill="#3E3E3E" transform="translate(160,96)"/>
<path d="M0 0 C7.91551227 1.57284477 15.46347364 3.98367497 23.125 6.5 C25.58560691 7.30309694 28.04653481 8.10521118 30.5078125 8.90625 C31.58691895 9.26009766 32.66602539 9.61394531 33.77783203 9.97851562 C37.16961771 11.05377182 40.57464748 12.03785269 44 13 C42.60151509 16.13031446 40.94379451 18.34860032 38.5859375 20.828125 C37.90660156 21.54613281 37.22726563 22.26414063 36.52734375 23.00390625 C35.81707031 23.74511719 35.10679687 24.48632812 34.375 25.25 C33.68792969 25.97574219 33.00085938 26.70148438 32.29296875 27.44921875 C28.15542484 31.80411956 23.9472902 36.07831146 19.66918945 40.29516602 C17.60624222 42.40216624 15.81786947 44.6806493 14 47 C11.54750122 49.48984648 9.05946619 51.94139425 6.5703125 54.39453125 C2.73623038 58.18574024 -1.05012455 61.96882232 -4.5625 66.0625 C-5.70695334 67.37620348 -6.85286991 68.68863322 -8 70 C-8.70898438 70.82371094 -9.41796875 71.64742188 -10.1484375 72.49609375 C-15.83853544 78.72024525 -15.83853544 78.72024525 -19.3515625 79.56640625 C-21.5625 79.5625 -21.5625 79.5625 -25 79 C-28.25690797 86.09540666 -30.85874895 91.97223645 -28.046875 99.578125 C-25.01092087 106.14962064 -21.78978853 109.29512923 -15.625 113.0625 C-10.06041116 116.95527158 -6.12239936 123.63280193 -4 130 C-2.64818346 145.62387959 -9.49245604 155.60458832 -18 168 C-19.65 167.67 -21.3 167.34 -23 167 C-23.8046875 165.0078125 -23.8046875 165.0078125 -24 162 C-22.68923451 159.08701824 -20.91675257 156.51219078 -19.125 153.875 C-18.1875889 152.45738921 -17.2525897 151.03817981 -16.3203125 149.6171875 C-15.90023926 148.99440918 -15.48016602 148.37163086 -15.04736328 147.72998047 C-11.8323425 142.41957552 -12.52195773 135.96828527 -13 130 C-15.2869563 123.46583915 -19.957624 120.40489229 -25.3046875 116.19140625 C-31.08270703 111.49362516 -35.49733179 106.45020375 -37 99 C-37.74870649 90.08682753 -36.47144003 83.18268008 -33 75 C-33.56589844 74.76925781 -34.13179688 74.53851563 -34.71484375 74.30078125 C-35.44832031 73.97464844 -36.18179688 73.64851563 -36.9375 73.3125 C-37.66839844 72.99925781 -38.39929688 72.68601562 -39.15234375 72.36328125 C-41 71 -41 71 -42.078125 68.89453125 C-41.95247261 64.23911024 -39.36679043 61.15541145 -36.8125 57.375 C-35.69227438 55.6630443 -34.57249479 53.95079666 -33.453125 52.23828125 C-32.87626953 51.3663916 -32.29941406 50.49450195 -31.70507812 49.59619141 C-29.0959254 45.62343509 -26.58375161 41.59135199 -24.0625 37.5625 C-19.2638856 29.94402389 -14.37786237 22.38426589 -9.45141602 14.84790039 C-6.2418945 9.93422616 -3.08908589 4.99032534 0 0 Z " fill="#3D3D3D" transform="translate(125,169)"/>
<path d="M0 0 C5.79545904 1.55303151 10.34325508 2.92774091 14 8 C14.52278569 12.91418548 13.3410989 16.20470678 11.25 20.625 C10.73953125 21.73101562 10.2290625 22.83703125 9.703125 23.9765625 C8.0527365 26.90638061 6.5964625 28.88023179 4 31 C-1.98673711 31.92103648 -5.96867651 29.92731549 -11 27 C-10.38631398 23.40624179 -9.41145342 20.29780516 -7.96875 16.953125 C-7.57042969 16.02628906 -7.17210937 15.09945312 -6.76171875 14.14453125 C-6.34535156 13.18933594 -5.92898437 12.23414063 -5.5 11.25 C-5.08363281 10.27933594 -4.66726562 9.30867187 -4.23828125 8.30859375 C-1.14043257 1.14043257 -1.14043257 1.14043257 0 0 Z " fill="#3F3F3F" transform="translate(254,160)"/>
<path d="M0 0 C2.91517292 1.07401108 4.77810176 1.77810176 7 4 C7.65080219 7.31317476 7.87717801 8.827452 7 12 C4.34886526 15.69719835 1.25407511 18.83212555 -2 22 C-2.67933594 22.74894531 -3.35867187 23.49789062 -4.05859375 24.26953125 C-6.57362619 26.5113006 -8.59763058 26.49448262 -11.89453125 26.33984375 C-15.26056673 25.7965319 -17.95740124 24.52129938 -21 23 C-19.62856477 19.91702038 -18.06587319 17.82810279 -15.6640625 15.46875 C-14.68566406 14.50001953 -14.68566406 14.50001953 -13.6875 13.51171875 C-12.6665625 12.51591797 -12.6665625 12.51591797 -11.625 11.5 C-10.95210937 10.83613281 -10.27921875 10.17226562 -9.5859375 9.48828125 C-8.29398039 8.2141267 -7.00012931 6.94188881 -5.70410156 5.671875 C-3.78994066 3.79391313 -1.8912869 1.9009858 0 0 Z " fill="#3F3F3F" transform="translate(166,196)"/>
<path d="M0 0 C3.33829783 5.00744674 2.42697446 10.53227498 1.7109375 16.34765625 C-0.39664386 25.51720798 -6.75670799 33.36057277 -12 41 C-13.65 40.67 -15.3 40.34 -17 40 C-17.80078125 37.96875 -17.80078125 37.96875 -18 35 C-16.69577232 32.30021001 -14.92318086 29.93781333 -13.1875 27.5 C-8.37389206 20.36309451 -6.32840427 14.71764063 -6 6 C-4.68 6.66 -3.36 7.32 -2 8 C-0.23537317 4.91190305 0 3.76687864 0 0 Z " fill="#3E3E3E" transform="translate(119,296)"/>
<path d="M0 0 C0.45375 0.474375 0.9075 0.94875 1.375 1.4375 C2.93258204 3.09027808 2.93258204 3.09027808 5 4 C3.47405106 7.64955487 1.94399753 11.29735835 0.41015625 14.94360352 C-0.36675398 16.79287212 -1.14042602 18.64350006 -1.9140625 20.49414062 C-2.64882812 22.23920898 -2.64882812 22.23920898 -3.3984375 24.01953125 C-3.84880371 25.09307861 -4.29916992 26.16662598 -4.76318359 27.27270508 C-6 30 -6 30 -8 33 C-8.66 32.34 -9.32 31.68 -10 31 C-10.99 31.33 -11.98 31.66 -13 32 C-10.72578162 24.75423446 -7.88273904 17.87948128 -4.8125 10.9375 C-4.34908203 9.88111328 -3.88566406 8.82472656 -3.40820312 7.73632812 C-2.2756523 5.15598036 -1.13952397 2.57727399 0 0 Z " fill="#F0F0F0" transform="translate(249,157)"/>
<path d="M0 0 C7.80326294 0.39016315 13.92923365 2.75773658 21 6 C21 7.65 21 9.3 21 11 C16.43261444 12.48785086 13.1527685 10.84682095 8.875 9.125 C8.14667969 8.84269531 7.41835937 8.56039062 6.66796875 8.26953125 C4.07016801 7.25634094 1.49542463 6.24771231 -1 5 C-0.67 3.35 -0.34 1.7 0 0 Z " fill="#F0F0F0" transform="translate(147,139)"/>
<path d="M0 0 C4.67095272 0.56265778 8.95266866 2.38324414 13.3125 4.0625 C14.42334961 4.48499023 14.42334961 4.48499023 15.55664062 4.91601562 C17.37242655 5.60718575 19.18639899 6.30311689 21 7 C20.67 8.65 20.34 10.3 20 12 C16.55959697 13.14680101 15.99729616 12.87124738 12.76953125 11.56640625 C11.96708984 11.24736328 11.16464844 10.92832031 10.33789062 10.59960938 C9.50451172 10.25736328 8.67113281 9.91511719 7.8125 9.5625 C6.96751953 9.22412109 6.12253906 8.88574219 5.25195312 8.53710938 C3.16443784 7.69974448 1.08083591 6.85379803 -1 6 C-1.042721 4.33388095 -1.04063832 2.66617115 -1 1 C-0.67 0.67 -0.34 0.34 0 0 Z " fill="#F2F2F2" transform="translate(153,123)"/>
<path d="M0 0 C0.33 0.66 0.66 1.32 1 2 C0.67 2.66 0.34 3.32 0 4 C3.3 3.67 6.6 3.34 10 3 C10.33 2.01 10.66 1.02 11 0 C11.66 0 12.32 0 13 0 C13 0.66 13 1.32 13 2 C13.99 2 14.98 2 16 2 C14.42163187 5.87417633 12.29181731 8.42379515 9 11 C3.04248571 11.76871152 -0.68803833 10.65598084 -6 8 C-4.55746343 4.63408134 -2.66735273 2.48952921 0 0 Z " fill="#424242" transform="translate(151,211)"/>
<path d="M0 0 C2.97387455 4.46081182 2.38766968 8.76645926 2 14 C1 17.6875 1 17.6875 0 20 C-0.99 19.67 -1.98 19.34 -3 19 C-3 18.01 -3 17.02 -3 16 C-3.99 15.67 -4.98 15.34 -6 15 C-6 12.03 -6 9.06 -6 6 C-4.02 6.99 -4.02 6.99 -2 8 C-0.23537317 4.91190305 0 3.76687864 0 0 Z " fill="#4C4C4C" transform="translate(119,296)"/>
<path d="M0 0 C0 1.66666667 0 3.33333333 0 5 C-0.66 5.66 -1.32 6.32 -2 7 C-1.81566406 7.62390625 -1.63132813 8.2478125 -1.44140625 8.890625 C-1 11 -1 11 -2.21484375 12.921875 C-2.78332031 13.52515625 -3.35179687 14.1284375 -3.9375 14.75 C-4.50339844 15.36359375 -5.06929687 15.9771875 -5.65234375 16.609375 C-6.09707031 17.06828125 -6.54179687 17.5271875 -7 18 C-7.99 17.67 -8.98 17.34 -10 17 C-10.83984375 14.89453125 -10.83984375 14.89453125 -11 12 C-9.24987311 9.63984581 -7.62120097 7.73624353 -5.5625 5.6875 C-5.03333984 5.13771484 -4.50417969 4.58792969 -3.95898438 4.02148438 C-2.65261199 2.66803551 -1.32799243 1.332242 0 0 Z " fill="#EFEFEF" transform="translate(165,187)"/>
<path d="M0 0 C2.47859908 2.2008849 3.61210366 4.06372969 4.6875 7.1875 C5.06455078 8.26064453 5.06455078 8.26064453 5.44921875 9.35546875 C5.63097656 9.89816406 5.81273438 10.44085938 6 11 C5.01 11.66 4.02 12.32 3 13 C1.33333333 11.33333333 -0.33333333 9.66666667 -2 8 C-2.99 8.495 -2.99 8.495 -4 9 C-4.33 6.69 -4.66 4.38 -5 2 C-3.35 1.34 -1.7 0.68 0 0 Z " fill="#454545" transform="translate(93,263)"/>
<path d="M0 0 C0.99 1.32 1.98 2.64 3 4 C3.66 3.67 4.32 3.34 5 3 C5.33 3.99 5.66 4.98 6 6 C4.5625 8.1875 4.5625 8.1875 3 10 C1.35 9.67 -0.3 9.34 -2 9 C-2.6875 6.75 -2.6875 6.75 -3 4 C-1.5625 1.6875 -1.5625 1.6875 0 0 Z " fill="#4A4A4A" transform="translate(104,327)"/>
<path d="M0 0 C1.13169509 4.52678036 0.94658264 5.85293263 -1 10 C-2.88401249 11.86865369 -4.88452374 13.37963521 -7 15 C-7.33 15.66 -7.66 16.32 -8 17 C-8.66 16.67 -9.32 16.34 -10 16 C-6.7 10.72 -3.4 5.44 0 0 Z " fill="#444444" transform="translate(121,175)"/>
<path d="M0 0 C1.32 0.66 2.64 1.32 4 2 C3.34 3.65 2.68 5.3 2 7 C0 7 -2 7 -4 7 C-4.99 7.495 -4.99 7.495 -6 8 C-4.55746343 4.63408134 -2.66735273 2.48952921 0 0 Z " fill="#373737" transform="translate(163,199)"/>
<path d="M0 0 C0.66 0.99 1.32 1.98 2 3 C1.67 3.66 1.34 4.32 1 5 C0.01 5 -0.98 5 -2 5 C-1.67 5.99 -1.34 6.98 -1 8 C-2.32 8 -3.64 8 -5 8 C-5.33 8.99 -5.66 9.98 -6 11 C-6.99 10.67 -7.98 10.34 -9 10 C-8.06409496 8.8944811 -7.12620142 7.79064547 -6.1875 6.6875 C-5.66542969 6.07261719 -5.14335937 5.45773437 -4.60546875 4.82421875 C-3.12827531 3.14575321 -1.59960869 1.56117966 0 0 Z " fill="#434343" transform="translate(228,286)"/>
<path d="M0 0 C6.875 3.75 6.875 3.75 8 6 C5.69 6.33 3.38 6.66 1 7 C-0.0625 4.625 -0.0625 4.625 -1 2 C-0.67 1.34 -0.34 0.68 0 0 Z M-3 6 C-2.01 6.33 -1.02 6.66 0 7 C-0.99 7 -1.98 7 -3 7 C-3 6.67 -3 6.34 -3 6 Z " fill="#454545" transform="translate(105,280)"/>
<path d="M0 0 C0.33 0.66 0.66 1.32 1 2 C0.67 2.66 0.34 3.32 0 4 C0.66 4 1.32 4 2 4 C1.67 4.99 1.34 5.98 1 7 C0.34 7 -0.32 7 -1 7 C-1 7.66 -1 8.32 -1 9 C-2.65 8.67 -4.3 8.34 -6 8 C-4.55746343 4.63408134 -2.66735273 2.48952921 0 0 Z " fill="#4C4C4C" transform="translate(151,211)"/>
<path d="M0 0 C2.625 0.9375 2.625 0.9375 5 2 C3.02 4.31 1.04 6.62 -1 9 C-1.66 8.34 -2.32 7.68 -3 7 C-2.75 3.9375 -2.75 3.9375 -2 1 C-1.34 0.67 -0.68 0.34 0 0 Z " fill="#F2F2F2" transform="translate(227,280)"/>
<path d="M0 0 C0.33 0.99 0.66 1.98 1 3 C-0.21484375 5.04296875 -0.21484375 5.04296875 -1.9375 7.1875 C-2.50339844 7.90292969 -3.06929688 8.61835938 -3.65234375 9.35546875 C-4.09707031 9.89816406 -4.54179687 10.44085938 -5 11 C-5.66 10.67 -6.32 10.34 -7 10 C-7 8.35 -7 6.7 -7 5 C-6.360625 4.896875 -5.72125 4.79375 -5.0625 4.6875 C-4.381875 4.460625 -3.70125 4.23375 -3 4 C-2.67 3.01 -2.34 2.02 -2 1 C-1.34 0.67 -0.68 0.34 0 0 Z " fill="#434343" transform="translate(356,212)"/>
<path d="M0 0 C1.125 1.6875 1.125 1.6875 2 4 C1.125 6.75 1.125 6.75 0 9 C-0.99 8.67 -1.98 8.34 -3 8 C-3 9.98 -3 11.96 -3 14 C-3.33 14 -3.66 14 -4 14 C-4 11.03 -4 8.06 -4 5 C-2.68 5 -1.36 5 0 5 C0 3.35 0 1.7 0 0 Z " fill="#343434" transform="translate(118,296)"/>
<path d="M0 0 C2 3 2 3 1.8125 4.9375 C0.87858188 7.30821524 -0.38827939 9.03790534 -2 11 C-2.66 10.67 -3.32 10.34 -4 10 C-2.68 6.7 -1.36 3.4 0 0 Z " fill="#4B4B4B" transform="translate(306,140)"/>
<path d="M0 0 C0.66 1.32 1.32 2.64 2 4 C1.34 4.66 0.68 5.32 0 6 C-1.98 5.01 -3.96 4.02 -6 3 C-6 2.34 -6 1.68 -6 1 C-4.7934375 1.0309375 -4.7934375 1.0309375 -3.5625 1.0625 C-1.06645115 1.29633621 -1.06645115 1.29633621 0 0 Z " fill="#434343" transform="translate(96,248)"/>
<path d="M0 0 C0.99 0.33 1.98 0.66 3 1 C2.67 2.65 2.34 4.3 2 6 C0.68 6 -0.64 6 -2 6 C-1.34 4.02 -0.68 2.04 0 0 Z " fill="#EAEAEA" transform="translate(171,129)"/>
<path d="M0 0 C1.32 0.66 2.64 1.32 4 2 C2.68 3.32 1.36 4.64 0 6 C-2 5 -2 5 -3 4 C-3 3.34 -3 2.68 -3 2 C-2.01 1.34 -1.02 0.68 0 0 Z " fill="#434343" transform="translate(132,217)"/>
<path d="M0 0 C0.45375 0.474375 0.9075 0.94875 1.375 1.4375 C2.93258204 3.09027808 2.93258204 3.09027808 5 4 C4.34 5.65 3.68 7.3 3 9 C0.7525351 6.7525351 -0.02484536 5.0004758 -1 2 C-0.67 1.34 -0.34 0.68 0 0 Z " fill="#E3E3E3" transform="translate(249,157)"/>
<path d="M0 0 C1 3 1 3 1 6 C-1.97 5.505 -1.97 5.505 -5 5 C-3.35 3.35 -1.7 1.7 0 0 Z " fill="#4A4A4A" transform="translate(125,113)"/>
<path d="M0 0 C0.33 1.32 0.66 2.64 1 4 C0.01 4.33 -0.98 4.66 -2 5 C-2.99 6.485 -2.99 6.485 -4 8 C-4.99 7.67 -5.98 7.34 -7 7 C-4.69 4.69 -2.38 2.38 0 0 Z " fill="#4C4C4C" transform="translate(193,322)"/>
<path d="M0 0 C2 3 2 3 2 7 C0.68 6.67 -0.64 6.34 -2 6 C-1.125 1.125 -1.125 1.125 0 0 Z " fill="#454545" transform="translate(245,181)"/>
<path d="M0 0 C0.33 0.66 0.66 1.32 1 2 C1.66 2.33 2.32 2.66 3 3 C2.01 4.485 2.01 4.485 1 6 C-0.65 5.67 -2.3 5.34 -4 5 C-2.68 3.35 -1.36 1.7 0 0 Z " fill="#515151" transform="translate(182,333)"/>
<path d="M0 0 C4.875 2.75 4.875 2.75 6 5 C5.34 5.66 4.68 6.32 4 7 C2.35 5.02 0.7 3.04 -1 1 C-0.67 0.67 -0.34 0.34 0 0 Z " fill="#E5E5E5" transform="translate(110,281)"/>
<path d="M0 0 C0.66 0 1.32 0 2 0 C1.6875 1.875 1.6875 1.875 1 4 C0.01 4.66 -0.98 5.32 -2 6 C-2 2 -2 2 0 0 Z " fill="#4D4D4D" transform="translate(241,272)"/>
<path d="M0 0 C1.32 0.66 2.64 1.32 4 2 C4 2.99 4 3.98 4 5 C1.69 4.34 -0.62 3.68 -3 3 C-2.01 2.01 -1.02 1.02 0 0 Z " fill="#4F4F4F" transform="translate(164,123)"/>
</svg>
